<?xml version="1.0" encoding="UTF-8" standalone="no"?>
<svg width="17px" height="10px" viewBox="0 0 17 10" version="1.1" xmlns="http://www.w3.org/2000/svg" xmlns:xlink="http://www.w3.org/1999/xlink">
    <!-- Generator: sketchtool 41 (35326) - http://www.bohemiancoding.com/sketch -->
    <title>F9FE4B1A-80A2-435A-B762-37E3346AC8CA</title>
    <desc>Created with sketchtool.</desc>
    <defs></defs>
    <g id="Page-1" stroke="none" stroke-width="1" fill="none" fill-rule="evenodd">
        <g id="0122_tryout_desktop_dark_bg" transform="translate(-1150.000000, -288.000000)" fill="#A9AFB3">
            <g id="Group-3-Copy-4" transform="translate(250.000000, 259.000000)">
                <g id="Group-3" transform="translate(900.000000, 22.000000)">
                    <path d="M4.48528137,12.4852814 L4.48528137,3.48775467 C4.48528137,2.94104233 4.03756612,2.48528137 3.48528137,2.48528137 C2.9291462,2.48528137 2.48528137,2.93410396 2.48528137,3.48775467 L2.48528137,13.4828081 C2.48528137,13.4832204 2.48528163,13.4836327 2.48528214,13.4840449 C2.48528163,13.4844568 2.48528137,13.484869 2.48528137,13.4852814 C2.48528137,13.7629352 2.59715335,14.0126049 2.77808966,14.1930259 C2.95989305,14.3716845 3.20955542,14.4852814 3.48528137,14.4852814 C3.48569371,14.4852814 3.48610599,14.4852811 3.4865182,14.4852806 C3.48693006,14.4852811 3.48734234,14.4852814 3.48775467,14.4852814 L13.4828081,14.4852814 C14.0295204,14.4852814 14.4852814,14.0375661 14.4852814,13.4852814 C14.4852814,12.9291462 14.0364588,12.4852814 13.4828081,12.4852814 L4.48528137,12.4852814 Z" id="Combined-Shape-Copy" transform="translate(8.485281, 8.485281) rotate(-45.000000) translate(-8.485281, -8.485281) "></path>
                </g>
            </g>
        </g>
    </g>
</svg>