<?xml version="1.0" encoding="UTF-8" standalone="no"?>
<svg width="23px" height="21px" viewBox="0 0 23 21" version="1.1" xmlns="http://www.w3.org/2000/svg" xmlns:xlink="http://www.w3.org/1999/xlink">
    <!-- Generator: sketchtool 41 (35326) - http://www.bohemiancoding.com/sketch -->
    <title>5C35ADCB-FCDD-4DE3-879A-DEC2E1A2FE8C</title>
    <desc>Created with sketchtool.</desc>
    <defs></defs>
    <g id="Page-1" stroke="none" stroke-width="1" fill="none" fill-rule="evenodd">
        <g id="tryout_desktop_dark_bg_dropdown_opened" transform="translate(-271.000000, -281.000000)" fill="#A9AFB3">
            <g id="Group-3-Copy-4" transform="translate(250.000000, 259.000000)">
                <g id="Group-2-Copy" transform="translate(21.000000, 22.000000)">
                    <g id="font-size">
                        <path d="M22,5 C21.4477153,5 21,4.55228475 21,4 L21,2 L15,2 L15,19 L17,19 C17.5522847,19 18,19.4477153 18,20 C18,20.5522847 17.5522847,21 17,21 L11,21 C10.4477153,21 10,20.5522847 10,20 C10,19.4477153 10.4477153,19 11,19 L13,19 L13,2 L7,2 L7,4 C7,4.55228475 6.55228475,5 6,5 C5.44771525,5 5,4.55228475 5,4 L5,1 C5,0.44771525 5.44771525,0 6,0 L22,0 C22.5522847,0 23,0.44771525 23,1 L23,4 C23,4.55228475 22.5522847,5 22,5 Z M9,13 C8.44771525,13 8,12.5522847 8,12 L6,12 L6,19 L7,19 C7.55228475,19 8,19.4477153 8,20 C8,20.5522847 7.55228475,21 7,21 L3,21 C2.44771525,21 2,20.5522847 2,20 C2,19.4477153 2.44771525,19 3,19 L4,19 L4,12 L2,12 C2,12.5522847 1.55228475,13 1,13 C0.44771525,13 0,12.5522847 0,12 L0,11 C-1.11022302e-16,10.4477153 0.44771525,10 1,10 L9,10 C9.55228475,10 10,10.4477153 10,11 L10,12 C10,12.5522847 9.55228475,13 9,13 Z"></path>
                    </g>
                </g>
            </g>
        </g>
    </g>
</svg>