<?xml version="1.0" encoding="UTF-8" standalone="no"?>
<svg width="24px" height="22px" viewBox="0 0 24 22" version="1.1" xmlns="http://www.w3.org/2000/svg" xmlns:xlink="http://www.w3.org/1999/xlink">
    <!-- Generator: sketchtool 41 (35326) - http://www.bohemiancoding.com/sketch -->
    <title>CCC771BB-705D-48EF-8F22-F508D0E75BBB</title>
    <desc>Created with sketchtool.</desc>
    <defs></defs>
    <g id="Page-1" stroke="none" stroke-width="1" fill="none" fill-rule="evenodd">
        <g id="tryout_desktop_dark_bg_dropdown_opened" transform="translate(-492.000000, -281.000000)" fill="#A9AFB3">
            <g id="line-height" transform="translate(492.000000, 281.000000)">
                <path d="M1,0 L23,0 C23.5522847,0 24,0.44771525 24,1 C24,1.55228475 23.5522847,2 23,2 L1,2 C0.44771525,2 0,1.55228475 0,1 C0,0.44771525 0.44771525,0 1,0 Z M1,20 L23,20 C23.5522847,20 24,20.4477153 24,21 C24,21.5522847 23.5522847,22 23,22 L1,22 C0.44771525,22 0,21.5522847 0,21 C0,20.4477153 0.44771525,20 1,20 Z M14.514,8 L13,8 L13,14 L14.524,14 C14.7543709,14.0014141 14.9613259,14.1411266 15.0487663,14.3542626 C15.1362066,14.5673985 15.0870019,14.8122022 14.924,14.975 L12.424,17.916 C12.3168971,18.0232314 12.1715573,18.0834842 12.02,18.0834842 C11.8684427,18.0834842 11.7231029,18.0232314 11.616,17.916 L9.081,14.975 C8.91799813,14.8122022 8.86879337,14.5673985 8.95623375,14.3542626 C9.04367412,14.1411266 9.25062912,14.0014141 9.481,14 L11,14 L11,8 L9.476,8 C9.24562912,7.99858586 9.03867412,7.85887336 8.95123375,7.64573744 C8.86379337,7.43260152 8.91299813,7.18779783 9.076,7.025 L11.576,4.084 C11.6831029,3.97676859 11.8284427,3.9165158 11.98,3.9165158 C12.1315573,3.9165158 12.2768971,3.97676859 12.384,4.084 L14.919,7.025 C15.0826394,7.18844168 15.1315237,7.43445365 15.0428028,7.64804115 C14.9540818,7.86162865 14.7452805,8.00060195 14.514,8 Z"></path>
            </g>
        </g>
    </g>
</svg>